<svg width="31" height="12" viewBox="0 0 31 12" fill="none" xmlns="http://www.w3.org/2000/svg">
<path d="M7.52344 12H0.0390625V10.9141L3.09375 7.8125C3.66146 7.23958 4.13802 6.72917 4.52344 6.28125C4.91406 5.83333 5.21094 5.39323 5.41406 4.96094C5.61719 4.52344 5.71875 4.04427 5.71875 3.52344C5.71875 2.8776 5.52604 2.38542 5.14062 2.04688C4.76042 1.70312 4.25781 1.53125 3.63281 1.53125C3.08594 1.53125 2.60156 1.625 2.17969 1.8125C1.75781 2 1.32552 2.26562 0.882812 2.60938L0.1875 1.73438C0.489583 1.47917 0.817708 1.2526 1.17188 1.05469C1.53125 0.856771 1.91406 0.700521 2.32031 0.585938C2.73177 0.471354 3.16927 0.414062 3.63281 0.414062C4.33594 0.414062 4.94271 0.536458 5.45312 0.78125C5.96354 1.02604 6.35677 1.375 6.63281 1.82812C6.91406 2.28125 7.05469 2.82031 7.05469 3.44531C7.05469 4.04948 6.9349 4.61198 6.69531 5.13281C6.45573 5.64844 6.11979 6.16146 5.6875 6.67188C5.25521 7.17708 4.75 7.71354 4.17188 8.28125L1.6875 10.7578V10.8125H7.52344V12ZM18.2578 0.578125L14.0078 12H12.7266L16.9844 0.578125H18.2578ZM30.8672 12H23.3828V10.9141L26.4375 7.8125C27.0052 7.23958 27.4818 6.72917 27.8672 6.28125C28.2578 5.83333 28.5547 5.39323 28.7578 4.96094C28.9609 4.52344 29.0625 4.04427 29.0625 3.52344C29.0625 2.8776 28.8698 2.38542 28.4844 2.04688C28.1042 1.70312 27.6016 1.53125 26.9766 1.53125C26.4297 1.53125 25.9453 1.625 25.5234 1.8125C25.1016 2 24.6693 2.26562 24.2266 2.60938L23.5312 1.73438C23.8333 1.47917 24.1615 1.2526 24.5156 1.05469C24.875 0.856771 25.2578 0.700521 25.6641 0.585938C26.0755 0.471354 26.513 0.414062 26.9766 0.414062C27.6797 0.414062 28.2865 0.536458 28.7969 0.78125C29.3073 1.02604 29.7005 1.375 29.9766 1.82812C30.2578 2.28125 30.3984 2.82031 30.3984 3.44531C30.3984 4.04948 30.2786 4.61198 30.0391 5.13281C29.7995 5.64844 29.4635 6.16146 29.0312 6.67188C28.599 7.17708 28.0938 7.71354 27.5156 8.28125L25.0312 10.7578V10.8125H30.8672V12Z" fill="white"/>
</svg>
