<svg width="31" height="12" viewBox="0 0 31 12" fill="none" xmlns="http://www.w3.org/2000/svg">
<path d="M4.83594 12H3.57031V3.85938C3.57031 3.18229 3.59115 2.54167 3.63281 1.9375C3.52344 2.04688 3.40104 2.16146 3.26562 2.28125C3.13021 2.40104 2.51042 2.90885 1.40625 3.80469L0.71875 2.91406L3.74219 0.578125H4.83594V12ZM18.2734 0.578125L14.0156 12H12.7188L16.9766 0.578125H18.2734ZM30.8828 12H23.375V10.8828L26.3828 7.85938C27.2995 6.93229 27.9036 6.27083 28.1953 5.875C28.487 5.47917 28.7057 5.09375 28.8516 4.71875C28.9974 4.34375 29.0703 3.9401 29.0703 3.50781C29.0703 2.89844 28.8854 2.41667 28.5156 2.0625C28.1458 1.70312 27.6328 1.52344 26.9766 1.52344C26.5026 1.52344 26.0521 1.60156 25.625 1.75781C25.2031 1.91406 24.7318 2.19792 24.2109 2.60938L23.5234 1.72656C24.5755 0.851562 25.7214 0.414062 26.9609 0.414062C28.0339 0.414062 28.875 0.690104 29.4844 1.24219C30.0938 1.78906 30.3984 2.52604 30.3984 3.45312C30.3984 4.17708 30.1953 4.89323 29.7891 5.60156C29.3828 6.3099 28.6224 7.20573 27.5078 8.28906L25.0078 10.7344V10.7969H30.8828V12Z" fill="white"/>
</svg>
